<svg id="Capa_1" enable-background="new 0 0 497 497" height="512" viewBox="0 0 497 497" width="512" xmlns="http://www.w3.org/2000/svg"><g><g fill="#50758d"><path d="m336.993 200.5c-1.464 0-2.943-.427-4.241-1.319-3.414-2.346-4.28-7.015-1.934-10.429l112-163c2.347-3.414 7.016-4.279 10.429-1.934 3.414 2.346 4.28 7.015 1.934 10.429l-112 163c-1.453 2.117-3.801 3.253-6.188 3.253z"/><path d="m336.995 200.5c-1.635 0-3.282-.532-4.661-1.628l-112-89c-3.243-2.577-3.783-7.295-1.206-10.538 2.578-3.244 7.295-3.784 10.538-1.206l112 89c3.243 2.577 3.783 7.295 1.206 10.538-1.481 1.863-3.668 2.834-5.877 2.834z"/><path d="m112.005 200.5c-2.22 0-4.417-.981-5.897-2.86-2.563-3.254-2.002-7.97 1.251-10.533l113-89c3.253-2.563 7.969-2.003 10.533 1.251 2.563 3.254 2.002 7.97-1.251 10.533l-113 89c-1.375 1.084-3.012 1.609-4.636 1.609z"/></g><circle cx="449" cy="30" fill="#93ddb7" r="30"/><circle cx="337" cy="193" fill="#2edffc" r="30"/><circle cx="225" cy="104" fill="#ffc682" r="30"/><circle cx="112" cy="193" fill="#fd646f" r="30"/><path d="m131.28 215.97c-5.21 4.39-11.94 7.03-19.28 7.03-11.14 0-20.86-6.07-26.03-15.09-4.212-7.289-5.099-17.371-2.08-25.39 3.38-9.09 11.04-16.09 20.54-18.55-5.42 5.54-8.77 13.15-8.77 21.54 0 17.04 13.8 30.84 30.83 30.84 1.63 0 3.23-.13 4.79-.38z" fill="#fc4755"/><path d="m244.28 126.97c-5.21 4.39-11.94 7.03-19.28 7.03-11.14 0-20.86-6.07-26.03-15.09-4.212-7.289-5.099-17.371-2.08-25.39 3.38-9.09 11.04-16.09 20.54-18.55-5.42 5.54-8.77 13.15-8.77 21.54 0 17.04 13.8 30.84 30.83 30.84 1.63 0 3.23-.13 4.79-.38z" fill="#ffac5c"/><path d="m356.28 215.97c-5.21 4.39-11.94 7.03-19.28 7.03-11.14 0-20.86-6.07-26.03-15.09-4.212-7.289-5.099-17.371-2.08-25.39 3.38-9.09 11.04-16.09 20.54-18.55-5.42 5.54-8.77 13.15-8.77 21.54 0 17.04 13.8 30.84 30.83 30.84 1.63 0 3.23-.13 4.79-.38z" fill="#27bdf3"/><path d="m468.28 52.97c-5.21 4.39-11.94 7.03-19.28 7.03-11.14 0-20.86-6.07-26.03-15.09-4.212-7.289-5.099-17.371-2.08-25.39 3.38-9.09 11.04-16.09 20.54-18.55-5.42 5.54-8.77 13.15-8.77 21.54 0 17.04 13.8 30.84 30.83 30.84 1.63 0 3.23-.13 4.79-.38z" fill="#5ed297"/><path d="m256.499 462h230.501c5.523 0 10 4.477 10 10v15c0 5.523-4.477 10-10 10h-472c-4.14 0-7.89-1.68-10.6-4.4-2.72-2.71-4.4-6.46-4.4-10.6v-94.5-34-343.5c0-5.523 4.477-10 10-10h15c5.523 0 10 4.477 10 10v452h187.499z" fill="#50758d"/><path d="m30 497h-15c-4.14 0-7.89-1.68-10.6-4.4-2.72-2.71-4.4-6.46-4.4-10.6v-472c0-5.52 4.48-10 10-10h15c-5.52 0-10 4.48-10 10v472c0 4.14 1.68 7.89 4.4 10.6 2.71 2.72 6.46 4.4 10.6 4.4z" fill="#2b597f"/><path d="m129 424h-30c-5.523 0-10-4.477-10-10v-120c0-5.523 4.477-10 10-10h30c5.523 0 10 4.477 10 10v120c0 5.523-4.477 10-10 10z" fill="#fd646f"/><path d="m240 424h-30c-5.523 0-10-4.477-10-10v-209c0-5.523 4.477-10 10-10h30c5.523 0 10 4.477 10 10v209c0 5.523-4.477 10-10 10z" fill="#ffc682"/><path d="m352 424h-30c-5.523 0-10-4.477-10-10v-120c0-5.523 4.477-10 10-10h30c5.523 0 10 4.477 10 10v120c0 5.523-4.477 10-10 10z" fill="#2edffc"/><path d="m464 424h-30c-5.523 0-10-4.477-10-10v-283c0-5.523 4.477-10 10-10h30c5.523 0 10 4.477 10 10v283c0 5.523-4.477 10-10 10z" fill="#93ddb7"/><path d="m119 424h-20c-5.52 0-10-4.48-10-10v-120c0-5.52 4.48-10 10-10h20c-5.52 0-10 4.48-10 10v120c0 5.52 4.48 10 10 10z" fill="#fc4755"/><path d="m230 424h-20c-5.52 0-10-4.48-10-10v-209c0-5.52 4.48-10 10-10h20c-5.52 0-10 4.48-10 10v209c0 5.52 4.48 10 10 10z" fill="#ffac5c"/><path d="m342 424h-20c-5.52 0-10-4.48-10-10v-120c0-5.52 4.48-10 10-10h20c-5.52 0-10 4.48-10 10v120c0 5.52 4.48 10 10 10z" fill="#27bdf3"/><path d="m454 424h-20c-5.52 0-10-4.48-10-10v-283c0-5.52 4.48-10 10-10h20c-5.52 0-10 4.48-10 10v283c0 5.52 4.48 10 10 10z" fill="#5ed297"/></g></svg>